<svg id="Lager_1" data-name="Lager 1" xmlns="http://www.w3.org/2000/svg" viewBox="0 0 447.19 86.83"><defs><style>.cls-1{opacity:0.5;}.cls-2{fill:#7890c4;}.cls-3{font-size:80px;font-family:Raleway-Bold, Raleway;font-weight:700;}.cls-4{font-size:36px;font-family:Raleway-Light, Raleway;font-weight:300;}.cls-5{letter-spacing:-0.01em;}.cls-6{letter-spacing:0em;}</style></defs><title>outbackclotheslogo</title><g class="cls-1"><path class="cls-2" d="M435.19,368.49c4.54-2.24,9.29-8.86,14.17-10,5.53-1.28,8.08,4.11,13.07,6.56a32.73,32.73,0,0,0-.47-7.13c4.69-.29,4.35-2.75,7.05-5a22.37,22.37,0,0,0,3-2.28c.16-.24,2.77-4.44,2.5-4.22,6.75-5.58,10.79-.82,17.91-.75-2.16-4.31-.24-6.18,3.55-7,2,.72,3.72.65,5.69,1.11-3.24-.78-6.56-4.69-6.48-8,.09-4.37,3.93-4.4,4.11-8.58a8.13,8.13,0,0,1,3.8,0c-.61,4.33,3.18,7.44,6.67,8a9.27,9.27,0,0,0,.2,2.46c2.17.18,4.24.93,6.45.87,1.29,2.57,1.18,1.9,3.36,3.15-1.44-5.18-6.72-7-10.11-11.07-2.5-3-4.88-10.16-7.64-12.21-5-3.71-6.91,1.68-10.66,5.53-3.26,3.34-8.07,6.22-11,9.66-3.11,3.66-3.35,8.43-7.15,12.17a65.45,65.45,0,0,1-15.37,10.83c-4.71,2.21-8,1.82-12.15,5-3.26,2.48-7.58,7.29-9.16,10.83" transform="translate(-397.86 -311.86)"/><path class="cls-2" d="M471.86,355.15c6.1-.5,11.44-4.79,17.23-5.91a9.79,9.79,0,0,1-2.33,7.14c3.28,0,4.55-2.76,7.25-3.74,2.3-.84,5.53-.1,7.72-.73a20,20,0,0,1,.9,7.82c3.15-.89,6.2-5.83,9.38-7.71,3.74-2.22,7-3.57,11.85-2.92,9.19,1.23,8.7,11.42,18.46,10.75-4.13-1.79-12.75-9.17-13-14-.34-6.31,4.38-14.85,10.43-7.35,2.13,2.64,1.68,6.09,4.79,8.55,2.61,2.07,6.5,2.11,9.33,4,4.87,3.17,7.7,9.34,13.35,11.23.07-1.53,1.12-3.76.75-5.64,10.47,3.91,22.58,17,34.51,16.44-6.88-4.85-15.06-7.65-21.76-13.34-3.17-2.69-5.62-4.37-8.18-7.84-.68-.92-2.37-5.08-3.3-5.38-4.17-1.31-1.71,1.87-4.06,3.4-1.65,1.07-.11,3.34-3.31,3.2-1.24-.06-3.57-3.19-4.48-4a53.29,53.29,0,0,0-10.2-7.73c-6.12-3.52-11-12.26-17.15-14.74-2,3.31-5.43,7.61-9,9.17-1.08-.49-1.94-.19-3-.45-1.89,5.05-7.88,3.88-12,6-4.57,2.39-7,7-12.18,8.26-.37-10.19-19.45,2.43-21.3,5.58" transform="translate(-397.86 -311.86)"/><path class="cls-2" d="M435.86,379.82a59.76,59.76,0,0,0,10.67-3.35c1.49-.58,3.78-.81,5.2-1.3,1.14-.41,1.7-2.75,3.45-3.23,1.33-.37,2.91,2.25,4.7,1.89s2.35-1.8,4-2.69c3-1.63,5.33-4,8.55-5.25.53,4.4-3.48,7.14-2.46,11.88,2.78-2.14,2.61-5.9,4.41-8.76s3.82-3.71,5.59-6.41c6.92-1.12,17.37,4.13,23.19,6.59,3.9,1.65,8.9,2.15,12.7,4.45,3.22,1.94,5.23,5.28,9.76,4.82-5,2.66-15.29,5.46-18.21,10.59,8.54-1.08,16.44-9,25-9.8,1.83,3.49,5.19,2.57,6.28-1.34a5.44,5.44,0,0,0,5.73-1.36c.41,2.45,1.26,3,2.69,4.55-1.87-10.87,12.4-1.28,17.42,1.24,7,3.53,15.37,4.8,23.15,6.16-8.26-1.94-17.24-7.19-25.17-10.68-5.39-2.37-15.68-6.83-18-12.08-9.62,8.16-14,9.87-25.35,4.08-8.33-4.24-18.79-7.53-28.14-11.15-6-2.34-6.33-.41-12.51,1.2-2.15.56-3.77-.48-6.18.6-1.89.85-4.22,4-6.36,5.2-5.34,3.05-10.32,2.3-15.47,4.28s-8.82,7.17-12.67,10.54" transform="translate(-397.86 -311.86)"/><path class="cls-2" d="M512.53,367.82c10.66-2.83,24-2.59,29.48-13.91,2.78.52,4.48,3.1,7.2,3.94,2.16.66,2.81-1.6,5.8.1,4.72,2.69,6.37,8.73,12.18,11.2,10,4.27,23.1,6.56,32.8,6.67-16.55,0-43.76,1.8-51.63-15.9-.79,1.06-3,2.08-3.82,3.31-.59-1.37-2-1.84-2.11-4a66,66,0,0,1-30.57,10.61" transform="translate(-397.86 -311.86)"/><path class="cls-2" d="M398.37,371.84c8.25-4.46,18.55-4.08,22.8-21.93,2.14.82,3.46,4.89,5.56,6.21,1.67,1.05,2.17-2.51,4.49.17,3.65,4.23,4.92,13.75,9.41,17.65,7.77,6.74,17.86,10.35,25.36,10.52-12.8,0-33.83,2.83-39.92-25.07-.61,1.67-2.33,3.28-2.94,5.22-.46-2.16-1.53-2.91-1.64-6.35-7.15,9.51-15.1,15.21-23.63,16.74" transform="translate(-397.86 -311.86)"/></g><text class="cls-3" transform="translate(43.39 68.4)">O</text><text class="cls-3" transform="translate(105.68 68.51)">C</text><text class="cls-4" transform="translate(183.94 60.99)">Outback</text><text class="cls-4" transform="translate(321.41 61.42)">Cl<tspan class="cls-5" x="34.16" y="0">o</tspan><tspan class="cls-6" x="55.22" y="0">thes</tspan></text></svg>